<?xml version="1.0" standalone="no"?><!DOCTYPE svg PUBLIC "-//W3C//DTD SVG 1.1//EN" "http://www.w3.org/Graphics/SVG/1.1/DTD/svg11.dtd"><svg t="1565581756034" class="icon" viewBox="0 0 1035 1024" version="1.1" xmlns="http://www.w3.org/2000/svg" p-id="5921" xmlns:xlink="http://www.w3.org/1999/xlink" width="202.1484375" height="200"><defs><style type="text/css"></style></defs><path d="M823.863968 1024H210.91498A210.91498 210.91498 0 0 1 0 813.08502V371.251822a36.378947 36.378947 0 0 1 36.378947-36.378948A36.378947 36.378947 0 0 1 72.550607 371.251822v441.833198a138.57166 138.57166 0 0 0 138.364373 138.157085h612.948988a138.57166 138.57166 0 0 0 138.157085-138.157085v-91.413765A37.00081 37.00081 0 0 1 999.021862 684.048583a34.202429 34.202429 0 0 1 35.757085 36.378947v92.242915A211.018623 211.018623 0 0 1 823.863968 1024z" p-id="5922" fill="#707070"></path><path d="M999.332794 370.733603m-36.275304 0a36.275304 36.275304 0 1 0 72.550607 0 36.275304 36.275304 0 1 0-72.550607 0Z" p-id="5923" fill="#707070"></path><path d="M999.332794 544.647773m-36.275304 0a36.275304 36.275304 0 1 0 72.550607 0 36.275304 36.275304 0 1 0-72.550607 0Z" p-id="5924" fill="#707070"></path><path d="M587.1417 36.275304v526.821052l205.836438-205.836437a36.275304 36.275304 0 0 1 51.303643 51.821862L580.404858 672.025911a41.45749 41.45749 0 0 1-58.558704 0l-22.076114-22.076113L259.109312 408.563563a36.378947 36.378947 0 0 1 0-51.821863 36.17166 36.17166 0 0 1 51.303643 0l204.178138 205.110932V36.275304a36.275304 36.275304 0 0 1 36.275304-36.275304 36.275304 36.275304 0 0 1 36.275303 36.275304z" p-id="5925" fill="#707070"></path></svg>