<?xml version="1.0" standalone="no"?><!DOCTYPE svg PUBLIC "-//W3C//DTD SVG 1.1//EN" "http://www.w3.org/Graphics/SVG/1.1/DTD/svg11.dtd"><svg t="1564731163632" class="icon" viewBox="0 0 1024 1024" version="1.1" xmlns="http://www.w3.org/2000/svg" p-id="10405" xmlns:xlink="http://www.w3.org/1999/xlink" width="200" height="200"><defs><style type="text/css"></style></defs><path d="M341.333333 469.333333c-12.8 0-21.333333 8.533333-21.333333 21.333333 0 6.4 2.133333 10.666667 6.4 14.933333l170.666667 170.666667c4.266667 4.266667 8.533333 6.4 14.933333 6.4 6.4 0 10.666667-2.133333 14.933333-6.4l170.666667-170.666667c4.266667-4.266667 6.4-8.533333 6.4-14.933333 0-12.8-8.533333-21.333333-21.333333-21.333333-6.4 0-10.666667 2.133333-14.933333 6.4L533.333333 610.133333 533.333333 64c0-12.8-8.533333-21.333333-21.333333-21.333333-12.8 0-21.333333 8.533333-21.333333 21.333333l0 546.133333-134.4-134.4C352 471.466667 347.733333 469.333333 341.333333 469.333333zM605.866667 53.333333c-2.133333-2.133333-6.4-2.133333-8.533333-2.133333-12.8 0-21.333333 8.533333-21.333333 21.333333 0 12.8 8.533333 21.333333 21.333333 21.333333l0 0c194.133333 40.533333 341.333333 211.2 341.333333 418.133333 0 234.666667-192 426.666667-426.666667 426.666667S85.333333 746.666667 85.333333 512c0-206.933333 147.2-377.6 341.333333-418.133333l0 0c12.8 0 21.333333-8.533333 21.333333-21.333333 0-12.8-8.533333-21.333333-21.333333-21.333333-4.266667 0-6.4 0-8.533333 2.133333C202.666667 96 42.666667 285.866667 42.666667 512c0 260.266667 209.066667 469.333333 469.333333 469.333333s469.333333-209.066667 469.333333-469.333333C981.333333 285.866667 821.333333 96 605.866667 53.333333z" p-id="10406" fill="#ffffff"></path></svg>