<?xml version="1.0" standalone="no"?><!DOCTYPE svg PUBLIC "-//W3C//DTD SVG 1.1//EN" "http://www.w3.org/Graphics/SVG/1.1/DTD/svg11.dtd"><svg t="1564731335135" class="icon" viewBox="0 0 1024 1024" version="1.1" xmlns="http://www.w3.org/2000/svg" p-id="2651" xmlns:xlink="http://www.w3.org/1999/xlink" width="200" height="200"><defs><style type="text/css"></style></defs><path d="M1015.716072 239.637393c-11.261945 11.261945-29.178675 11.261945-40.44062 0l-139.750495-137.70287V767.92498h-1.023813c4.607159 76.785987-47.095405 163.298198-137.190963 215.000762-115.690886 66.547855-249.81041 50.678751-299.977254-36.345367-50.166845-86.512212 3.071439-210.90551 118.762326-277.965271 93.166997-53.750191 198.107845-53.750191 261.58426-6.654785V45.112893c0-15.869104-2.047626-29.690581 6.142879-36.857273 11.773851-10.750038 29.178675-11.261945 40.44062 0l190.941153 190.941153c11.261945 11.261945 11.261945 29.178675 0.511907 40.44062zM593.905052 182.303856H25.688752c-14.333384 0-25.595329-11.261945-25.595329-25.595329s11.261945-25.595329 25.595329-25.595329h568.2163c14.333384 0 25.595329 11.261945 25.595329 25.595329s-11.261945 25.595329-25.595329 25.595329zM442.892612 537.055114H25.688752c-14.333384 0-25.595329-11.261945-25.595329-25.595329s11.261945-25.595329 25.595329-25.595329h417.20386c14.333384 0 25.595329 11.261945 25.595329 25.595329 0 13.821478-11.261945 25.595329-25.595329 25.595329zM276.522975 891.294465H25.688752c-14.333384 0-25.595329-11.261945-25.595329-25.595329s11.261945-25.595329 25.595329-25.595329h250.834223c14.333384 0 25.595329 11.261945 25.595328 25.595329s-11.261945 25.595329-25.595328 25.595329z" p-id="2652" fill="#ffffff"></path></svg>