<?xml version="1.0" standalone="no"?><!DOCTYPE svg PUBLIC "-//W3C//DTD SVG 1.1//EN" "http://www.w3.org/Graphics/SVG/1.1/DTD/svg11.dtd"><svg t="1571880438405" class="icon" viewBox="0 0 1024 1024" version="1.1" xmlns="http://www.w3.org/2000/svg" p-id="2491" xmlns:xlink="http://www.w3.org/1999/xlink" width="200" height="200"><defs><style type="text/css"></style></defs><path d="M848.5376 486.0928H229.632l211.7632-211.7632a30.72 30.72 0 1 0-43.4688-43.4688l-264.1408 264.192a26.7776 26.7776 0 0 0-3.8912 4.7616 29.1328 29.1328 0 0 0-2.6112 5.12v0.3584a31.8464 31.8464 0 0 0-1.5872 5.12v0.3072a34.4064 34.4064 0 0 0-0.5632 5.632 33.8432 33.8432 0 0 0 0.5632 5.632v0.3072a30.72 30.72 0 0 0 1.5872 5.12v0.4096a30.72 30.72 0 0 0 2.6112 5.12v0.3584a28.16 28.16 0 0 0 3.84 4.6592l264.1408 264.192a30.72 30.72 0 1 0 43.4688-43.4176l-211.712-211.2h618.9056a30.72 30.72 0 0 0 0-61.44z" fill="#515151" p-id="2492"></path></svg>